<?xml version="1.0" encoding="UTF-8" standalone="no"?><svg xmlns="http://www.w3.org/2000/svg" xmlns:xlink="http://www.w3.org/1999/xlink" contentStyleType="text/css" height="623px" preserveAspectRatio="none" style="width:1154px;height:623px;background:#FFFFFF;" version="1.1" viewBox="0 0 1154 623" width="1154px" zoomAndPan="magnify"><defs/><g><rect fill="#ADD8E6" height="611.5859" style="stroke:#181818;stroke-width:0.5;" width="494.5" x="138" y="6"/><text fill="#000000" font-family="sans-serif" font-size="13" font-weight="bold" lengthAdjust="spacing" textLength="95" x="337.75" y="18.0669">Grasshopper</text><rect fill="#FFFFFF" height="291.3281" style="stroke:#181818;stroke-width:1.0;" width="10" x="180.5" y="112.4297"/><rect fill="#FFFFFF" height="262.1953" style="stroke:#181818;stroke-width:1.0;" width="10" x="406.5" y="141.5625"/><rect fill="#FFFFFF" height="203.9297" style="stroke:#181818;stroke-width:1.0;" width="10" x="544" y="199.8281"/><rect fill="#FFFFFF" height="145.6641" style="stroke:#181818;stroke-width:1.0;" width="10" x="737" y="228.9609"/><rect fill="#FFFFFF" height="58.2656" style="stroke:#181818;stroke-width:1.0;" width="10" x="929" y="258.0938"/><line style="stroke:#181818;stroke-width:0.5;stroke-dasharray:5.0,5.0;" x1="68" x2="68" y1="81.2969" y2="538.2891"/><line style="stroke:#181818;stroke-width:0.5;stroke-dasharray:5.0,5.0;" x1="185" x2="185" y1="81.2969" y2="538.2891"/><line style="stroke:#181818;stroke-width:0.5;stroke-dasharray:5.0,5.0;" x1="411.5" x2="411.5" y1="81.2969" y2="538.2891"/><line style="stroke:#181818;stroke-width:0.5;stroke-dasharray:5.0,5.0;" x1="548.5" x2="548.5" y1="81.2969" y2="538.2891"/><line style="stroke:#181818;stroke-width:0.5;stroke-dasharray:5.0,5.0;" x1="742" x2="742" y1="81.2969" y2="538.2891"/><line style="stroke:#181818;stroke-width:0.5;stroke-dasharray:5.0,5.0;" x1="933.5" x2="933.5" y1="81.2969" y2="538.2891"/><line style="stroke:#181818;stroke-width:0.5;stroke-dasharray:5.0,5.0;" x1="1055" x2="1055" y1="81.2969" y2="538.2891"/><line style="stroke:#181818;stroke-width:0.5;stroke-dasharray:5.0,5.0;" x1="1127" x2="1127" y1="81.2969" y2="538.2891"/><text fill="#000000" font-family="sans-serif" font-size="14" lengthAdjust="spacing" textLength="121" x="5" y="77.9951">GrasshopperTest</text><ellipse cx="68.5" cy="13.5" fill="#E2E2F0" rx="8" ry="8" style="stroke:#181818;stroke-width:0.5;"/><path d="M68.5,21.5 L68.5,48.5 M55.5,29.5 L81.5,29.5 M68.5,48.5 L55.5,63.5 M68.5,48.5 L81.5,63.5 " fill="none" style="stroke:#181818;stroke-width:0.5;"/><text fill="#000000" font-family="sans-serif" font-size="14" lengthAdjust="spacing" textLength="121" x="5" y="550.2842">GrasshopperTest</text><ellipse cx="68.5" cy="562.0859" fill="#E2E2F0" rx="8" ry="8" style="stroke:#181818;stroke-width:0.5;"/><path d="M68.5,570.0859 L68.5,597.0859 M55.5,578.0859 L81.5,578.0859 M68.5,597.0859 L55.5,612.0859 M68.5,597.0859 L81.5,612.0859 " fill="none" style="stroke:#181818;stroke-width:0.5;"/><text fill="#000000" font-family="sans-serif" font-size="14" lengthAdjust="spacing" textLength="81" x="142" y="77.9951">LaunchTest</text><path d="M165,37 L165,61 M165,49 L182,49 " fill="none" style="stroke:#181818;stroke-width:0.5;"/><ellipse cx="194" cy="49" fill="#E2E2F0" rx="12" ry="12" style="stroke:#181818;stroke-width:0.5;"/><text fill="#000000" font-family="sans-serif" font-size="14" lengthAdjust="spacing" textLength="81" x="142" y="550.2842">LaunchTest</text><path d="M165,557.5859 L165,581.5859 M165,569.5859 L182,569.5859 " fill="none" style="stroke:#181818;stroke-width:0.5;"/><ellipse cx="194" cy="569.5859" fill="#E2E2F0" rx="12" ry="12" style="stroke:#181818;stroke-width:0.5;"/><text fill="#000000" font-family="sans-serif" font-size="14" lengthAdjust="spacing" textLength="90" x="363.5" y="77.9951">Grasshopper</text><ellipse cx="411.5" cy="49" fill="#E2E2F0" rx="12" ry="12" style="stroke:#181818;stroke-width:0.5;"/><line style="stroke:#181818;stroke-width:0.5;" x1="399.5" x2="423.5" y1="63" y2="63"/><text fill="#000000" font-family="sans-serif" font-size="14" lengthAdjust="spacing" textLength="90" x="363.5" y="550.2842">Grasshopper</text><ellipse cx="411.5" cy="569.5859" fill="#E2E2F0" rx="12" ry="12" style="stroke:#181818;stroke-width:0.5;"/><line style="stroke:#181818;stroke-width:0.5;" x1="399.5" x2="423.5" y1="583.5859" y2="583.5859"/><text fill="#000000" font-family="sans-serif" font-size="14" lengthAdjust="spacing" textLength="153" x="469.5" y="77.9951">GrasshopperListeners</text><ellipse cx="549" cy="49" fill="#E2E2F0" rx="12" ry="12" style="stroke:#181818;stroke-width:0.5;"/><line style="stroke:#181818;stroke-width:0.5;" x1="537" x2="561" y1="63" y2="63"/><text fill="#000000" font-family="sans-serif" font-size="14" lengthAdjust="spacing" textLength="153" x="469.5" y="550.2842">GrasshopperListeners</text><ellipse cx="549" cy="569.5859" fill="#E2E2F0" rx="12" ry="12" style="stroke:#181818;stroke-width:0.5;"/><line style="stroke:#181818;stroke-width:0.5;" x1="537" x2="561" y1="583.5859" y2="583.5859"/><text fill="#000000" font-family="sans-serif" font-size="14" lengthAdjust="spacing" textLength="122" x="678" y="77.9951">LocustDBListener</text><ellipse cx="742" cy="49" fill="#E2E2F0" rx="12" ry="12" style="stroke:#181818;stroke-width:0.5;"/><line style="stroke:#181818;stroke-width:0.5;" x1="730" x2="754" y1="63" y2="63"/><text fill="#000000" font-family="sans-serif" font-size="14" lengthAdjust="spacing" textLength="122" x="678" y="550.2842">LocustDBListener</text><ellipse cx="742" cy="569.5859" fill="#E2E2F0" rx="12" ry="12" style="stroke:#181818;stroke-width:0.5;"/><line style="stroke:#181818;stroke-width:0.5;" x1="730" x2="754" y1="583.5859" y2="583.5859"/><text fill="#000000" font-family="sans-serif" font-size="14" lengthAdjust="spacing" textLength="59" x="901.5" y="77.9951">DbClient</text><path d="M913.5,37 L913.5,61 M913.5,49 L930.5,49 " fill="none" style="stroke:#181818;stroke-width:0.5;"/><ellipse cx="942.5" cy="49" fill="#E2E2F0" rx="12" ry="12" style="stroke:#181818;stroke-width:0.5;"/><text fill="#000000" font-family="sans-serif" font-size="14" lengthAdjust="spacing" textLength="59" x="901.5" y="550.2842">DbClient</text><path d="M913.5,557.5859 L913.5,581.5859 M913.5,569.5859 L930.5,569.5859 " fill="none" style="stroke:#181818;stroke-width:0.5;"/><ellipse cx="942.5" cy="569.5859" fill="#E2E2F0" rx="12" ry="12" style="stroke:#181818;stroke-width:0.5;"/><text fill="#000000" font-family="sans-serif" font-size="14" lengthAdjust="spacing" textLength="66" x="1019" y="77.9951">Database</text><path d="M1037,29 C1037,19 1055,19 1055,19 C1055,19 1073,19 1073,29 L1073,55 C1073,65 1055,65 1055,65 C1055,65 1037,65 1037,55 L1037,29 " fill="#E2E2F0" style="stroke:#181818;stroke-width:1.5;"/><path d="M1037,29 C1037,39 1055,39 1055,39 C1055,39 1073,39 1073,29 " fill="none" style="stroke:#181818;stroke-width:1.5;"/><text fill="#000000" font-family="sans-serif" font-size="14" lengthAdjust="spacing" textLength="66" x="1019" y="550.2842">Database</text><path d="M1037,563.5859 C1037,553.5859 1055,553.5859 1055,553.5859 C1055,553.5859 1073,553.5859 1073,563.5859 L1073,589.5859 C1073,599.5859 1055,599.5859 1055,599.5859 C1055,599.5859 1037,599.5859 1037,589.5859 L1037,563.5859 " fill="#E2E2F0" style="stroke:#181818;stroke-width:1.5;"/><path d="M1037,563.5859 C1037,573.5859 1055,573.5859 1055,573.5859 C1055,573.5859 1073,573.5859 1073,563.5859 " fill="none" style="stroke:#181818;stroke-width:1.5;"/><text fill="#000000" font-family="sans-serif" font-size="14" lengthAdjust="spacing" textLength="46" x="1101" y="77.9951">Locust</text><path d="M1106.5,37 L1106.5,61 M1106.5,49 L1123.5,49 " fill="none" style="stroke:#181818;stroke-width:0.5;"/><ellipse cx="1135.5" cy="49" fill="#E2E2F0" rx="12" ry="12" style="stroke:#181818;stroke-width:0.5;"/><text fill="#000000" font-family="sans-serif" font-size="14" lengthAdjust="spacing" textLength="46" x="1101" y="550.2842">Locust</text><path d="M1106.5,557.5859 L1106.5,581.5859 M1106.5,569.5859 L1123.5,569.5859 " fill="none" style="stroke:#181818;stroke-width:0.5;"/><ellipse cx="1135.5" cy="569.5859" fill="#E2E2F0" rx="12" ry="12" style="stroke:#181818;stroke-width:0.5;"/><rect fill="#FFFFFF" height="291.3281" style="stroke:#181818;stroke-width:1.0;" width="10" x="180.5" y="112.4297"/><rect fill="#FFFFFF" height="262.1953" style="stroke:#181818;stroke-width:1.0;" width="10" x="406.5" y="141.5625"/><rect fill="#FFFFFF" height="203.9297" style="stroke:#181818;stroke-width:1.0;" width="10" x="544" y="199.8281"/><rect fill="#FFFFFF" height="145.6641" style="stroke:#181818;stroke-width:1.0;" width="10" x="737" y="228.9609"/><rect fill="#FFFFFF" height="58.2656" style="stroke:#181818;stroke-width:1.0;" width="10" x="929" y="258.0938"/><polygon fill="#181818" points="168.5,108.4297,178.5,112.4297,168.5,116.4297,172.5,112.4297" style="stroke:#181818;stroke-width:1.0;"/><line style="stroke:#181818;stroke-width:1.0;" x1="68.5" x2="174.5" y1="112.4297" y2="112.4297"/><text fill="#000000" font-family="sans-serif" font-size="13" lengthAdjust="spacing" textLength="50" x="75.5" y="107.3638">run test</text><polygon fill="#181818" points="394.5,137.5625,404.5,141.5625,394.5,145.5625,398.5,141.5625" style="stroke:#181818;stroke-width:1.0;"/><line style="stroke:#181818;stroke-width:1.0;" x1="190.5" x2="400.5" y1="141.5625" y2="141.5625"/><text fill="#000000" font-family="sans-serif" font-size="13" lengthAdjust="spacing" textLength="197" x="197.5" y="136.4966">create new grasshopper object</text><polygon fill="#181818" points="201.5,166.6953,191.5,170.6953,201.5,174.6953,197.5,170.6953" style="stroke:#181818;stroke-width:1.0;"/><line style="stroke:#181818;stroke-width:1.0;stroke-dasharray:2.0,2.0;" x1="195.5" x2="405.5" y1="170.6953" y2="170.6953"/><text fill="#000000" font-family="sans-serif" font-size="13" lengthAdjust="spacing" textLength="123" x="207.5" y="165.6294">grasshopper object</text><polygon fill="#181818" points="532,195.8281,542,199.8281,532,203.8281,536,199.8281" style="stroke:#181818;stroke-width:1.0;"/><line style="stroke:#181818;stroke-width:1.0;" x1="190.5" x2="538" y1="199.8281" y2="199.8281"/><text fill="#000000" font-family="sans-serif" font-size="13" lengthAdjust="spacing" textLength="171" x="197.5" y="194.7622">create new listeners object</text><polygon fill="#181818" points="725,224.9609,735,228.9609,725,232.9609,729,228.9609" style="stroke:#181818;stroke-width:1.0;"/><line style="stroke:#181818;stroke-width:1.0;" x1="554" x2="731" y1="228.9609" y2="228.9609"/><text fill="#000000" font-family="sans-serif" font-size="13" lengthAdjust="spacing" textLength="164" x="561" y="223.895">create new listener object</text><polygon fill="#181818" points="917,254.0938,927,258.0938,917,262.0938,921,258.0938" style="stroke:#181818;stroke-width:1.0;"/><line style="stroke:#181818;stroke-width:1.0;" x1="747" x2="923" y1="258.0938" y2="258.0938"/><text fill="#000000" font-family="sans-serif" font-size="13" lengthAdjust="spacing" textLength="151" x="754" y="253.0278">create new client object</text><polygon fill="#181818" points="1043,283.2266,1053,287.2266,1043,291.2266,1047,287.2266" style="stroke:#181818;stroke-width:1.0;"/><line style="stroke:#181818;stroke-width:1.0;" x1="939" x2="1049" y1="287.2266" y2="287.2266"/><text fill="#000000" font-family="sans-serif" font-size="13" lengthAdjust="spacing" textLength="51" x="946" y="282.1606">connect</text><polygon fill="#181818" points="758,312.3594,748,316.3594,758,320.3594,754,316.3594" style="stroke:#181818;stroke-width:1.0;"/><line style="stroke:#181818;stroke-width:1.0;stroke-dasharray:2.0,2.0;" x1="752" x2="933" y1="316.3594" y2="316.3594"/><text fill="#000000" font-family="sans-serif" font-size="13" lengthAdjust="spacing" textLength="106" x="764" y="311.2935">new client object</text><line style="stroke:#181818;stroke-width:1.0;" x1="1125" x2="1115" y1="345.4922" y2="341.4922"/><line style="stroke:#181818;stroke-width:1.0;" x1="1125" x2="1115" y1="345.4922" y2="349.4922"/><line style="stroke:#181818;stroke-width:1.0;" x1="747" x2="1126" y1="345.4922" y2="345.4922"/><text fill="#000000" font-family="sans-serif" font-size="13" lengthAdjust="spacing" textLength="216" x="754" y="340.4263">register listeners on locust events</text><polygon fill="#181818" points="565,370.625,555,374.625,565,378.625,561,374.625" style="stroke:#181818;stroke-width:1.0;"/><line style="stroke:#181818;stroke-width:1.0;stroke-dasharray:2.0,2.0;" x1="559" x2="741" y1="374.625" y2="374.625"/><text fill="#000000" font-family="sans-serif" font-size="13" lengthAdjust="spacing" textLength="119" x="571" y="369.5591">new listener object</text><polygon fill="#181818" points="196.5,399.7578,186.5,403.7578,196.5,407.7578,192.5,403.7578" style="stroke:#181818;stroke-width:1.0;"/><line style="stroke:#181818;stroke-width:1.0;stroke-dasharray:2.0,2.0;" x1="190.5" x2="548" y1="403.7578" y2="403.7578"/><text fill="#000000" font-family="sans-serif" font-size="13" lengthAdjust="spacing" textLength="126" x="202.5" y="398.6919">new listeners object</text><polygon fill="#181818" points="1115,428.8906,1125,432.8906,1115,436.8906,1119,432.8906" style="stroke:#181818;stroke-width:1.0;"/><line style="stroke:#181818;stroke-width:1.0;" x1="68.5" x2="1121" y1="432.8906" y2="432.8906"/><text fill="#000000" font-family="sans-serif" font-size="13" lengthAdjust="spacing" textLength="458" x="75.5" y="427.8247">send http request (via API library, wich calls the Locust request method)</text><line style="stroke:#181818;stroke-width:1.0;" x1="743" x2="753" y1="462.0234" y2="458.0234"/><line style="stroke:#181818;stroke-width:1.0;" x1="743" x2="753" y1="462.0234" y2="466.0234"/><line style="stroke:#181818;stroke-width:1.0;" x1="742" x2="1126" y1="462.0234" y2="462.0234"/><text fill="#000000" font-family="sans-serif" font-size="13" lengthAdjust="spacing" textLength="185" x="759" y="456.9575">call listener on request event</text><line style="stroke:#181818;stroke-width:1.0;" x1="932" x2="922" y1="491.1563" y2="487.1563"/><line style="stroke:#181818;stroke-width:1.0;" x1="932" x2="922" y1="491.1563" y2="495.1563"/><line style="stroke:#181818;stroke-width:1.0;" x1="742" x2="933" y1="491.1563" y2="491.1563"/><text fill="#000000" font-family="sans-serif" font-size="13" lengthAdjust="spacing" textLength="168" x="749" y="486.0903">add metric for the request</text><line style="stroke:#181818;stroke-width:1.0;" x1="1053" x2="1043" y1="520.2891" y2="516.2891"/><line style="stroke:#181818;stroke-width:1.0;" x1="1053" x2="1043" y1="520.2891" y2="524.2891"/><line style="stroke:#181818;stroke-width:1.0;" x1="934" x2="1054" y1="520.2891" y2="520.2891"/><text fill="#000000" font-family="sans-serif" font-size="13" lengthAdjust="spacing" textLength="97" x="941" y="515.2231">post data point</text><!--MD5=[a258fd14a4e4da99d3bab166696f4a74]
@startuml
actor GrasshopperTest
box "Grasshopper" #LightBlue
boundary LaunchTest
entity Grasshopper
entity GrasshopperListeners
end box
entity LocustDBListener
boundary DbClient
database Database
boundary Locust

GrasshopperTest -> LaunchTest : run test
activate LaunchTest

LaunchTest -> Grasshopper : create new grasshopper object
activate Grasshopper
Grasshopper - -> LaunchTest : grasshopper object

LaunchTest -> GrasshopperListeners : create new listeners object
activate GrasshopperListeners

GrasshopperListeners -> LocustDBListener : create new listener object
activate LocustDBListener
LocustDBListener -> DbClient : create new client object
activate DbClient
DbClient -> Database : connect
DbClient - -> LocustDBListener : new client object
deactivate DbClient
LocustDBListener ->> Locust : register listeners on locust events
LocustDBListener - -> GrasshopperListeners : new listener object
deactivate LocustDBListener

GrasshopperListeners - -> LaunchTest : new listeners object
deactivate GrasshopperListeners


deactivate Grasshopper
deactivate LaunchTest

GrasshopperTest -> Locust : send http request (via API library, wich calls the Locust request method)
Locust ->> LocustDBListener : call listener on request event
LocustDBListener ->> DbClient : add metric for the request
DbClient ->> Database : post data point
@enduml

PlantUML version 1.2022.7(Mon Aug 22 17:01:30 UTC 2022)
(GPL source distribution)
Java Runtime: OpenJDK Runtime Environment
JVM: OpenJDK 64-Bit Server VM
Default Encoding: UTF-8
Language: en
Country: null
--></g></svg>